<?xml version="1.0" encoding="UTF-8" standalone="no"?>
<!DOCTYPE svg PUBLIC "-//W3C//DTD SVG 1.1//EN"
 "http://www.w3.org/Graphics/SVG/1.1/DTD/svg11.dtd">
<!-- Generated by graphviz version 2.47.0 (20210316.0004)
 -->
<!-- Title: dependencies Pages: 1 -->
<svg width="1386pt" height="211pt"
 viewBox="0.00 0.00 1386.00 211.00" xmlns="http://www.w3.org/2000/svg" xmlns:xlink="http://www.w3.org/1999/xlink">
<g id="graph0" class="graph" transform="scale(1 1) rotate(0) translate(4 207)">
<title>dependencies</title>
<polygon fill="white" stroke="transparent" points="-4,4 -4,-207 1382,-207 1382,4 -4,4"/>
<text text-anchor="start" x="668.01" y="-42.4" font-family="Times-12" font-weight="bold" font-size="14.00">Legend</text>
<polygon fill="#ffffb3" stroke="transparent" points="455,-10 455,-30 475,-30 475,-10 455,-10"/>
<text text-anchor="start" x="478.63" y="-15.4" font-family="Times-12" font-size="14.00"> &#160;Declarations</text>
<polygon fill="#8dd3c7" stroke="transparent" points="568,-10 568,-30 588,-30 588,-10 568,-10"/>
<text text-anchor="start" x="591.73" y="-15.4" font-family="Times-12" font-size="14.00"> &#160;Module</text>
<polygon fill="#80b1d3" stroke="transparent" points="654,-10 654,-30 674,-30 674,-10 654,-10"/>
<text text-anchor="start" x="677.78" y="-15.4" font-family="Times-12" font-size="14.00"> &#160;Bootstrap</text>
<polygon fill="#fdb462" stroke="transparent" points="751,-10 751,-30 771,-30 771,-10 751,-10"/>
<text text-anchor="start" x="774.67" y="-15.4" font-family="Times-12" font-size="14.00"> &#160;Providers</text>
<polygon fill="#fb8072" stroke="transparent" points="847,-10 847,-30 867,-30 867,-10 847,-10"/>
<text text-anchor="start" x="870.73" y="-15.4" font-family="Times-12" font-size="14.00"> &#160;Exports</text>
<g id="clust1" class="cluster">
<title>cluster_AppModule</title>
<polygon fill="none" stroke="black" stroke-dasharray="1,5" points="8,-70 8,-195 1370,-195 1370,-70 8,-70"/>
</g>
<g id="clust3" class="cluster">
<title>cluster_AppModule_imports</title>
<polygon fill="none" stroke="black" points="154,-78 154,-130 1362,-130 1362,-78 154,-78"/>
</g>
<g id="clust6" class="cluster">
<title>cluster_AppModule_providers</title>
<polygon fill="none" stroke="black" points="16,-78 16,-130 146,-130 146,-78 16,-78"/>
</g>
<!-- AddressModule -->
<g id="node1" class="node">
<title>AddressModule</title>
<polygon fill="#8dd3c7" stroke="black" points="1353.92,-122 1350.92,-126 1329.92,-126 1326.92,-122 1248.08,-122 1248.08,-86 1353.92,-86 1353.92,-122"/>
<text text-anchor="middle" x="1301" y="-99.8" font-family="Times,serif" font-size="14.00">AddressModule</text>
</g>
<!-- AppModule -->
<g id="node11" class="node">
<title>AppModule</title>
<polygon fill="#8dd3c7" stroke="black" points="743.66,-187 740.66,-191 719.66,-191 716.66,-187 660.34,-187 660.34,-151 743.66,-151 743.66,-187"/>
<text text-anchor="middle" x="702" y="-164.8" font-family="Times,serif" font-size="14.00">AppModule</text>
</g>
<!-- AddressModule&#45;&gt;AppModule -->
<g id="edge1" class="edge">
<title>AddressModule&#45;&gt;AppModule</title>
<path fill="none" stroke="black" d="M1301,-122.09C1301,-145.13 1301,-182 1301,-182 1301,-182 754.12,-182 754.12,-182"/>
<polygon fill="black" stroke="black" points="754.12,-178.5 744.12,-182 754.12,-185.5 754.12,-178.5"/>
</g>
<!-- AuthModule -->
<g id="node2" class="node">
<title>AuthModule</title>
<polygon fill="#8dd3c7" stroke="black" points="1230.55,-122 1227.55,-126 1206.55,-126 1203.55,-122 1143.45,-122 1143.45,-86 1230.55,-86 1230.55,-122"/>
<text text-anchor="middle" x="1187" y="-99.8" font-family="Times,serif" font-size="14.00">AuthModule</text>
</g>
<!-- AuthModule&#45;&gt;AppModule -->
<g id="edge2" class="edge">
<title>AuthModule&#45;&gt;AppModule</title>
<path fill="none" stroke="black" d="M1187,-122.28C1187,-143.32 1187,-175 1187,-175 1187,-175 753.77,-175 753.77,-175"/>
<polygon fill="black" stroke="black" points="753.77,-171.5 743.77,-175 753.77,-178.5 753.77,-171.5"/>
</g>
<!-- CartModule -->
<g id="node3" class="node">
<title>CartModule</title>
<polygon fill="#8dd3c7" stroke="black" points="1124.65,-122 1121.65,-126 1100.65,-126 1097.65,-122 1041.35,-122 1041.35,-86 1124.65,-86 1124.65,-122"/>
<text text-anchor="middle" x="1083" y="-99.8" font-family="Times,serif" font-size="14.00">CartModule</text>
</g>
<!-- CartModule&#45;&gt;AppModule -->
<g id="edge3" class="edge">
<title>CartModule&#45;&gt;AppModule</title>
<path fill="none" stroke="black" d="M1083,-122.11C1083,-141.34 1083,-169 1083,-169 1083,-169 753.86,-169 753.86,-169"/>
<polygon fill="black" stroke="black" points="753.86,-165.5 743.86,-169 753.86,-172.5 753.86,-165.5"/>
</g>
<!-- CustomerModule -->
<g id="node4" class="node">
<title>CustomerModule</title>
<polygon fill="#8dd3c7" stroke="black" points="1022.99,-122 1019.99,-126 998.99,-126 995.99,-122 909.01,-122 909.01,-86 1022.99,-86 1022.99,-122"/>
<text text-anchor="middle" x="966" y="-99.8" font-family="Times,serif" font-size="14.00">CustomerModule</text>
</g>
<!-- CustomerModule&#45;&gt;AppModule -->
<g id="edge4" class="edge">
<title>CustomerModule&#45;&gt;AppModule</title>
<path fill="none" stroke="black" d="M966,-122.02C966,-139.37 966,-163 966,-163 966,-163 753.83,-163 753.83,-163"/>
<polygon fill="black" stroke="black" points="753.83,-159.5 743.83,-163 753.83,-166.5 753.83,-159.5"/>
</g>
<!-- DiscountModule -->
<g id="node5" class="node">
<title>DiscountModule</title>
<polygon fill="#8dd3c7" stroke="black" points="891.1,-122 888.1,-126 867.1,-126 864.1,-122 780.9,-122 780.9,-86 891.1,-86 891.1,-122"/>
<text text-anchor="middle" x="836" y="-99.8" font-family="Times,serif" font-size="14.00">DiscountModule</text>
</g>
<!-- DiscountModule&#45;&gt;AppModule -->
<g id="edge5" class="edge">
<title>DiscountModule&#45;&gt;AppModule</title>
<path fill="none" stroke="black" d="M836,-122.24C836,-137.57 836,-157 836,-157 836,-157 753.66,-157 753.66,-157"/>
<polygon fill="black" stroke="black" points="753.66,-153.5 743.66,-157 753.66,-160.5 753.66,-153.5"/>
</g>
<!-- FulfillmentModule -->
<g id="node6" class="node">
<title>FulfillmentModule</title>
<polygon fill="#8dd3c7" stroke="black" points="763.05,-122 760.05,-126 739.05,-126 736.05,-122 640.95,-122 640.95,-86 763.05,-86 763.05,-122"/>
<text text-anchor="middle" x="702" y="-99.8" font-family="Times,serif" font-size="14.00">FulfillmentModule</text>
</g>
<!-- FulfillmentModule&#45;&gt;AppModule -->
<g id="edge6" class="edge">
<title>FulfillmentModule&#45;&gt;AppModule</title>
<path fill="none" stroke="black" d="M702,-122.11C702,-122.11 702,-140.99 702,-140.99"/>
<polygon fill="black" stroke="black" points="698.5,-140.99 702,-150.99 705.5,-140.99 698.5,-140.99"/>
</g>
<!-- OrdersModule -->
<g id="node7" class="node">
<title>OrdersModule</title>
<polygon fill="#8dd3c7" stroke="black" points="622.64,-122 619.64,-126 598.64,-126 595.64,-122 525.36,-122 525.36,-86 622.64,-86 622.64,-122"/>
<text text-anchor="middle" x="574" y="-99.8" font-family="Times,serif" font-size="14.00">OrdersModule</text>
</g>
<!-- OrdersModule&#45;&gt;AppModule -->
<g id="edge7" class="edge">
<title>OrdersModule&#45;&gt;AppModule</title>
<path fill="none" stroke="black" d="M574,-122.24C574,-137.57 574,-157 574,-157 574,-157 650.09,-157 650.09,-157"/>
<polygon fill="black" stroke="black" points="650.09,-160.5 660.09,-157 650.09,-153.5 650.09,-160.5"/>
</g>
<!-- PaymentModule -->
<g id="node8" class="node">
<title>PaymentModule</title>
<polygon fill="#8dd3c7" stroke="black" points="507.04,-122 504.04,-126 483.04,-126 480.04,-122 398.96,-122 398.96,-86 507.04,-86 507.04,-122"/>
<text text-anchor="middle" x="453" y="-99.8" font-family="Times,serif" font-size="14.00">PaymentModule</text>
</g>
<!-- PaymentModule&#45;&gt;AppModule -->
<g id="edge8" class="edge">
<title>PaymentModule&#45;&gt;AppModule</title>
<path fill="none" stroke="black" d="M453,-122.02C453,-139.37 453,-163 453,-163 453,-163 650.32,-163 650.32,-163"/>
<polygon fill="black" stroke="black" points="650.32,-166.5 660.32,-163 650.32,-159.5 650.32,-166.5"/>
</g>
<!-- ProductsModule -->
<g id="node9" class="node">
<title>ProductsModule</title>
<polygon fill="#8dd3c7" stroke="black" points="380.04,-122 377.04,-126 356.04,-126 353.04,-122 271.96,-122 271.96,-86 380.04,-86 380.04,-122"/>
<text text-anchor="middle" x="326" y="-99.8" font-family="Times,serif" font-size="14.00">ProductsModule</text>
</g>
<!-- ProductsModule&#45;&gt;AppModule -->
<g id="edge9" class="edge">
<title>ProductsModule&#45;&gt;AppModule</title>
<path fill="none" stroke="black" d="M326,-122.11C326,-141.34 326,-169 326,-169 326,-169 650.32,-169 650.32,-169"/>
<polygon fill="black" stroke="black" points="650.32,-172.5 660.32,-169 650.32,-165.5 650.32,-172.5"/>
</g>
<!-- UsersModule -->
<g id="node10" class="node">
<title>UsersModule</title>
<polygon fill="#8dd3c7" stroke="black" points="253.92,-122 250.92,-126 229.92,-126 226.92,-122 162.08,-122 162.08,-86 253.92,-86 253.92,-122"/>
<text text-anchor="middle" x="208" y="-99.8" font-family="Times,serif" font-size="14.00">UsersModule</text>
</g>
<!-- UsersModule&#45;&gt;AppModule -->
<g id="edge10" class="edge">
<title>UsersModule&#45;&gt;AppModule</title>
<path fill="none" stroke="black" d="M208,-122.28C208,-143.32 208,-175 208,-175 208,-175 650.31,-175 650.31,-175"/>
<polygon fill="black" stroke="black" points="650.31,-178.5 660.31,-175 650.31,-171.5 650.31,-178.5"/>
</g>
<!-- AppService -->
<g id="node12" class="node">
<title>AppService</title>
<ellipse fill="#fdb462" stroke="black" cx="81" cy="-104" rx="56.74" ry="18"/>
<text text-anchor="middle" x="81" y="-99.8" font-family="Times,serif" font-size="14.00">AppService</text>
</g>
<!-- AppService&#45;&gt;AppModule -->
<g id="edge11" class="edge">
<title>AppService&#45;&gt;AppModule</title>
<path fill="none" stroke="black" d="M81,-122.09C81,-145.13 81,-182 81,-182 81,-182 650.29,-182 650.29,-182"/>
<polygon fill="black" stroke="black" points="650.29,-185.5 660.29,-182 650.29,-178.5 650.29,-185.5"/>
</g>
</g>
</svg>
